<mxfile host="app.diagrams.net" modified="2024-07-13T18:17:46.375Z" agent="Mozilla/5.0 (X11; Linux x86_64) AppleWebKit/537.36 (KHTML, like Gecko) Chrome/125.0.0.0 Safari/537.36 Edg/125.0.0.0" etag="gAyxoSu25uIRDTmSAGMp" version="24.6.5" type="device" pages="2">
  <diagram name="ClassDiagram" id="7R4BcdUbidkSkJADilpD">
    <mxGraphModel dx="1301" dy="771" grid="1" gridSize="10" guides="1" tooltips="1" connect="1" arrows="1" fold="1" page="1" pageScale="1" pageWidth="827" pageHeight="1169" math="0" shadow="0">
      <root>
        <mxCell id="0" />
        <mxCell id="1" parent="0" />
        <mxCell id="mdE4PeT_COc87Rr9XcsN-1" value="&lt;h1 style=&quot;margin-top: 0px;&quot;&gt;Calculator Class Diagram&lt;/h1&gt;&lt;p&gt;This diagram contains the class diagrams of the simple calculator program. We aim to separate the display logic with the calculation logic.&lt;/p&gt;" style="text;html=1;whiteSpace=wrap;overflow=hidden;rounded=0;" parent="1" vertex="1">
          <mxGeometry x="20" y="30" width="300" height="100" as="geometry" />
        </mxCell>
        <mxCell id="mdE4PeT_COc87Rr9XcsN-3" value="&lt;p style=&quot;margin:0px;margin-top:4px;text-align:center;&quot;&gt;&lt;b&gt;Operation&lt;/b&gt;&lt;/p&gt;&lt;hr size=&quot;1&quot; style=&quot;border-style:solid;&quot;&gt;&lt;p style=&quot;margin:0px;margin-left:4px;&quot;&gt;+ numberA: double&lt;/p&gt;&lt;p style=&quot;margin:0px;margin-left:4px;&quot;&gt;+ numberB: double&lt;/p&gt;&lt;hr size=&quot;1&quot; style=&quot;border-style:solid;&quot;&gt;&lt;p style=&quot;margin:0px;margin-left:4px;&quot;&gt;+ calculate(): double&lt;/p&gt;" style="verticalAlign=top;align=left;overflow=fill;html=1;whiteSpace=wrap;" parent="1" vertex="1">
          <mxGeometry x="300" y="245" width="160" height="90" as="geometry" />
        </mxCell>
        <mxCell id="mdE4PeT_COc87Rr9XcsN-4" value="Extends" style="endArrow=block;endSize=16;endFill=0;html=1;rounded=0;entryX=0.5;entryY=1;entryDx=0;entryDy=0;exitX=0.5;exitY=0;exitDx=0;exitDy=0;edgeStyle=elbowEdgeStyle;elbow=vertical;" parent="1" source="mdE4PeT_COc87Rr9XcsN-6" target="mdE4PeT_COc87Rr9XcsN-3" edge="1">
          <mxGeometry width="160" relative="1" as="geometry">
            <mxPoint x="390" y="490" as="sourcePoint" />
            <mxPoint x="520" y="460" as="targetPoint" />
          </mxGeometry>
        </mxCell>
        <mxCell id="mdE4PeT_COc87Rr9XcsN-6" value="&lt;p style=&quot;margin:0px;margin-top:4px;text-align:center;&quot;&gt;&lt;b&gt;Add&lt;/b&gt;&lt;/p&gt;&lt;hr size=&quot;1&quot; style=&quot;border-style:solid;&quot;&gt;&lt;p style=&quot;margin:0px;margin-left:4px;&quot;&gt;&lt;br&gt;&lt;/p&gt;&lt;hr size=&quot;1&quot; style=&quot;border-style:solid;&quot;&gt;&lt;p style=&quot;margin:0px;margin-left:4px;&quot;&gt;+ calculate(): double&lt;/p&gt;" style="verticalAlign=top;align=left;overflow=fill;html=1;whiteSpace=wrap;" parent="1" vertex="1">
          <mxGeometry x="30" y="505" width="160" height="80" as="geometry" />
        </mxCell>
        <mxCell id="mdE4PeT_COc87Rr9XcsN-7" value="&lt;p style=&quot;margin:0px;margin-top:4px;text-align:center;&quot;&gt;&lt;b&gt;Sub&lt;/b&gt;&lt;/p&gt;&lt;hr size=&quot;1&quot; style=&quot;border-style:solid;&quot;&gt;&lt;p style=&quot;margin:0px;margin-left:4px;&quot;&gt;&lt;br&gt;&lt;/p&gt;&lt;hr size=&quot;1&quot; style=&quot;border-style:solid;&quot;&gt;&lt;p style=&quot;margin:0px;margin-left:4px;&quot;&gt;+ calculate(): double&lt;/p&gt;" style="verticalAlign=top;align=left;overflow=fill;html=1;whiteSpace=wrap;" parent="1" vertex="1">
          <mxGeometry x="210" y="505" width="160" height="80" as="geometry" />
        </mxCell>
        <mxCell id="mdE4PeT_COc87Rr9XcsN-8" value="&lt;p style=&quot;margin:0px;margin-top:4px;text-align:center;&quot;&gt;&lt;b&gt;Mul&lt;/b&gt;&lt;/p&gt;&lt;hr size=&quot;1&quot; style=&quot;border-style:solid;&quot;&gt;&lt;p style=&quot;margin:0px;margin-left:4px;&quot;&gt;&lt;br&gt;&lt;/p&gt;&lt;hr size=&quot;1&quot; style=&quot;border-style:solid;&quot;&gt;&lt;p style=&quot;margin:0px;margin-left:4px;&quot;&gt;+ calculate(): double&lt;/p&gt;" style="verticalAlign=top;align=left;overflow=fill;html=1;whiteSpace=wrap;" parent="1" vertex="1">
          <mxGeometry x="390" y="505" width="160" height="80" as="geometry" />
        </mxCell>
        <mxCell id="mdE4PeT_COc87Rr9XcsN-9" value="&lt;p style=&quot;margin:0px;margin-top:4px;text-align:center;&quot;&gt;&lt;b&gt;Div&lt;/b&gt;&lt;/p&gt;&lt;hr size=&quot;1&quot; style=&quot;border-style:solid;&quot;&gt;&lt;p style=&quot;margin:0px;margin-left:4px;&quot;&gt;&lt;br&gt;&lt;/p&gt;&lt;hr size=&quot;1&quot; style=&quot;border-style:solid;&quot;&gt;&lt;p style=&quot;margin:0px;margin-left:4px;&quot;&gt;+ calculate(): double&lt;/p&gt;" style="verticalAlign=top;align=left;overflow=fill;html=1;whiteSpace=wrap;" parent="1" vertex="1">
          <mxGeometry x="570" y="505" width="160" height="80" as="geometry" />
        </mxCell>
        <mxCell id="mdE4PeT_COc87Rr9XcsN-10" value="Extends" style="endArrow=block;endSize=16;endFill=0;html=1;rounded=0;entryX=0.5;entryY=1;entryDx=0;entryDy=0;edgeStyle=elbowEdgeStyle;elbow=vertical;" parent="1" source="mdE4PeT_COc87Rr9XcsN-7" target="mdE4PeT_COc87Rr9XcsN-3" edge="1">
          <mxGeometry width="160" relative="1" as="geometry">
            <mxPoint x="120" y="515" as="sourcePoint" />
            <mxPoint x="410" y="350" as="targetPoint" />
          </mxGeometry>
        </mxCell>
        <mxCell id="mdE4PeT_COc87Rr9XcsN-11" value="Extends" style="endArrow=block;endSize=16;endFill=0;html=1;rounded=0;edgeStyle=elbowEdgeStyle;elbow=vertical;entryX=0.5;entryY=1;entryDx=0;entryDy=0;" parent="1" source="mdE4PeT_COc87Rr9XcsN-8" target="mdE4PeT_COc87Rr9XcsN-3" edge="1">
          <mxGeometry width="160" relative="1" as="geometry">
            <mxPoint x="300" y="515" as="sourcePoint" />
            <mxPoint x="400" y="340" as="targetPoint" />
          </mxGeometry>
        </mxCell>
        <mxCell id="mdE4PeT_COc87Rr9XcsN-12" value="Extends" style="endArrow=block;endSize=16;endFill=0;html=1;rounded=0;edgeStyle=elbowEdgeStyle;elbow=vertical;entryX=0.5;entryY=1;entryDx=0;entryDy=0;exitX=0.5;exitY=0;exitDx=0;exitDy=0;" parent="1" source="mdE4PeT_COc87Rr9XcsN-9" target="mdE4PeT_COc87Rr9XcsN-3" edge="1">
          <mxGeometry width="160" relative="1" as="geometry">
            <mxPoint x="480" y="515" as="sourcePoint" />
            <mxPoint x="410" y="350" as="targetPoint" />
          </mxGeometry>
        </mxCell>
        <mxCell id="mdE4PeT_COc87Rr9XcsN-13" value="&lt;p style=&quot;margin:0px;margin-top:4px;text-align:center;&quot;&gt;&lt;b&gt;OperationFactory&lt;/b&gt;&lt;/p&gt;&lt;hr size=&quot;1&quot; style=&quot;border-style:solid;&quot;&gt;&lt;p style=&quot;margin:0px;margin-left:4px;&quot;&gt;&lt;br&gt;&lt;/p&gt;&lt;hr size=&quot;1&quot; style=&quot;border-style:solid;&quot;&gt;&lt;p style=&quot;margin:0px;margin-left:4px;&quot;&gt;+ static createOperation(): Operation&lt;/p&gt;" style="verticalAlign=top;align=left;overflow=fill;html=1;whiteSpace=wrap;" parent="1" vertex="1">
          <mxGeometry x="710" y="250" width="210" height="80" as="geometry" />
        </mxCell>
        <mxCell id="mdE4PeT_COc87Rr9XcsN-14" value="" style="endArrow=open;endFill=1;endSize=12;html=1;rounded=0;entryX=1;entryY=0.5;entryDx=0;entryDy=0;exitX=0;exitY=0.5;exitDx=0;exitDy=0;" parent="1" source="mdE4PeT_COc87Rr9XcsN-13" target="mdE4PeT_COc87Rr9XcsN-3" edge="1">
          <mxGeometry width="160" relative="1" as="geometry">
            <mxPoint x="640" y="390" as="sourcePoint" />
            <mxPoint x="800" y="390" as="targetPoint" />
          </mxGeometry>
        </mxCell>
        <mxCell id="mdE4PeT_COc87Rr9XcsN-15" value="Direct Association" style="edgeLabel;html=1;align=center;verticalAlign=middle;resizable=0;points=[];" parent="mdE4PeT_COc87Rr9XcsN-14" vertex="1" connectable="0">
          <mxGeometry x="0.2308" y="1" relative="1" as="geometry">
            <mxPoint x="34" y="-1" as="offset" />
          </mxGeometry>
        </mxCell>
      </root>
    </mxGraphModel>
  </diagram>
  <diagram id="AKEQTTPmJlWzwgJLTmCU" name="UI/UE">
    <mxGraphModel dx="1531" dy="907" grid="1" gridSize="10" guides="1" tooltips="1" connect="1" arrows="1" fold="1" page="1" pageScale="1" pageWidth="827" pageHeight="1169" math="0" shadow="0">
      <root>
        <mxCell id="0" />
        <mxCell id="1" parent="0" />
        <mxCell id="AJ1Aqrt28S9K2kQBdjTv-3" value="" style="rounded=0;whiteSpace=wrap;html=1;" parent="1" vertex="1">
          <mxGeometry x="240" y="170" width="350" height="450" as="geometry" />
        </mxCell>
        <mxCell id="AJ1Aqrt28S9K2kQBdjTv-2" value="&lt;h1 style=&quot;margin-top: 0px;&quot;&gt;Calculator UI&lt;/h1&gt;&lt;p&gt;Show the example of the calculator UI layout.&lt;/p&gt;" style="text;html=1;whiteSpace=wrap;overflow=hidden;rounded=0;" parent="1" vertex="1">
          <mxGeometry x="20" y="10" width="180" height="90" as="geometry" />
        </mxCell>
        <mxCell id="AJ1Aqrt28S9K2kQBdjTv-4" value="&lt;font style=&quot;font-size: 24px;&quot;&gt;0&lt;/font&gt;" style="rounded=1;whiteSpace=wrap;html=1;align=right;" parent="1" vertex="1">
          <mxGeometry x="256" y="200" width="315" height="50" as="geometry" />
        </mxCell>
        <mxCell id="AJ1Aqrt28S9K2kQBdjTv-5" value="&lt;font style=&quot;font-size: 24px;&quot;&gt;7&lt;/font&gt;" style="rounded=1;whiteSpace=wrap;html=1;" parent="1" vertex="1">
          <mxGeometry x="264" y="290" width="60" height="60" as="geometry" />
        </mxCell>
        <mxCell id="AJ1Aqrt28S9K2kQBdjTv-6" value="&lt;span style=&quot;font-size: 24px;&quot;&gt;8&lt;/span&gt;" style="rounded=1;whiteSpace=wrap;html=1;" parent="1" vertex="1">
          <mxGeometry x="344" y="290" width="60" height="60" as="geometry" />
        </mxCell>
        <mxCell id="AJ1Aqrt28S9K2kQBdjTv-7" value="&lt;span style=&quot;font-size: 24px;&quot;&gt;9&lt;/span&gt;" style="rounded=1;whiteSpace=wrap;html=1;" parent="1" vertex="1">
          <mxGeometry x="424" y="290" width="60" height="60" as="geometry" />
        </mxCell>
        <mxCell id="AJ1Aqrt28S9K2kQBdjTv-8" value="&lt;span style=&quot;font-size: 24px;&quot;&gt;+&lt;/span&gt;" style="rounded=1;whiteSpace=wrap;html=1;" parent="1" vertex="1">
          <mxGeometry x="504" y="290" width="60" height="60" as="geometry" />
        </mxCell>
        <mxCell id="AJ1Aqrt28S9K2kQBdjTv-9" value="&lt;span style=&quot;font-size: 24px;&quot;&gt;4&lt;/span&gt;" style="rounded=1;whiteSpace=wrap;html=1;" parent="1" vertex="1">
          <mxGeometry x="264" y="370" width="60" height="60" as="geometry" />
        </mxCell>
        <mxCell id="AJ1Aqrt28S9K2kQBdjTv-10" value="&lt;span style=&quot;font-size: 24px;&quot;&gt;5&lt;/span&gt;" style="rounded=1;whiteSpace=wrap;html=1;" parent="1" vertex="1">
          <mxGeometry x="344" y="370" width="60" height="60" as="geometry" />
        </mxCell>
        <mxCell id="AJ1Aqrt28S9K2kQBdjTv-11" value="&lt;span style=&quot;font-size: 24px;&quot;&gt;6&lt;/span&gt;" style="rounded=1;whiteSpace=wrap;html=1;" parent="1" vertex="1">
          <mxGeometry x="424" y="370" width="60" height="60" as="geometry" />
        </mxCell>
        <mxCell id="AJ1Aqrt28S9K2kQBdjTv-12" value="&lt;span style=&quot;font-size: 24px;&quot;&gt;-&lt;/span&gt;" style="rounded=1;whiteSpace=wrap;html=1;" parent="1" vertex="1">
          <mxGeometry x="504" y="370" width="60" height="60" as="geometry" />
        </mxCell>
        <mxCell id="AJ1Aqrt28S9K2kQBdjTv-13" value="&lt;span style=&quot;font-size: 24px;&quot;&gt;1&lt;/span&gt;" style="rounded=1;whiteSpace=wrap;html=1;" parent="1" vertex="1">
          <mxGeometry x="264" y="450" width="60" height="60" as="geometry" />
        </mxCell>
        <mxCell id="AJ1Aqrt28S9K2kQBdjTv-14" value="&lt;span style=&quot;font-size: 24px;&quot;&gt;2&lt;/span&gt;" style="rounded=1;whiteSpace=wrap;html=1;" parent="1" vertex="1">
          <mxGeometry x="344" y="450" width="60" height="60" as="geometry" />
        </mxCell>
        <mxCell id="AJ1Aqrt28S9K2kQBdjTv-15" value="&lt;span style=&quot;font-size: 24px;&quot;&gt;3&lt;/span&gt;" style="rounded=1;whiteSpace=wrap;html=1;" parent="1" vertex="1">
          <mxGeometry x="424" y="450" width="60" height="60" as="geometry" />
        </mxCell>
        <mxCell id="AJ1Aqrt28S9K2kQBdjTv-16" value="&lt;span style=&quot;font-size: 24px;&quot;&gt;x&lt;/span&gt;" style="rounded=1;whiteSpace=wrap;html=1;" parent="1" vertex="1">
          <mxGeometry x="504" y="450" width="60" height="60" as="geometry" />
        </mxCell>
        <mxCell id="AJ1Aqrt28S9K2kQBdjTv-17" value="&lt;span style=&quot;font-size: 24px;&quot;&gt;0&lt;/span&gt;" style="rounded=1;whiteSpace=wrap;html=1;" parent="1" vertex="1">
          <mxGeometry x="264" y="530" width="60" height="60" as="geometry" />
        </mxCell>
        <mxCell id="AJ1Aqrt28S9K2kQBdjTv-18" value="&lt;span style=&quot;font-size: 24px;&quot;&gt;C&lt;/span&gt;" style="rounded=1;whiteSpace=wrap;html=1;" parent="1" vertex="1">
          <mxGeometry x="344" y="530" width="60" height="60" as="geometry" />
        </mxCell>
        <mxCell id="AJ1Aqrt28S9K2kQBdjTv-19" value="&lt;span style=&quot;font-size: 24px;&quot;&gt;=&lt;/span&gt;" style="rounded=1;whiteSpace=wrap;html=1;" parent="1" vertex="1">
          <mxGeometry x="424" y="530" width="60" height="60" as="geometry" />
        </mxCell>
        <mxCell id="AJ1Aqrt28S9K2kQBdjTv-20" value="&lt;span style=&quot;font-size: 24px;&quot;&gt;/&lt;/span&gt;" style="rounded=1;whiteSpace=wrap;html=1;" parent="1" vertex="1">
          <mxGeometry x="504" y="530" width="60" height="60" as="geometry" />
        </mxCell>
        <mxCell id="HUOILxzLQQR359suwJqP-1" value="" style="rounded=0;whiteSpace=wrap;html=1;" vertex="1" parent="1">
          <mxGeometry x="770" y="170" width="350" height="520" as="geometry" />
        </mxCell>
        <mxCell id="HUOILxzLQQR359suwJqP-2" value="&lt;font style=&quot;font-size: 24px;&quot;&gt;0&lt;/font&gt;" style="rounded=1;whiteSpace=wrap;html=1;align=right;" vertex="1" parent="1">
          <mxGeometry x="786" y="200" width="315" height="50" as="geometry" />
        </mxCell>
        <mxCell id="HUOILxzLQQR359suwJqP-3" value="&lt;font style=&quot;font-size: 24px;&quot;&gt;7&lt;/font&gt;" style="rounded=1;whiteSpace=wrap;html=1;" vertex="1" parent="1">
          <mxGeometry x="794" y="290" width="60" height="60" as="geometry" />
        </mxCell>
        <mxCell id="HUOILxzLQQR359suwJqP-4" value="&lt;span style=&quot;font-size: 24px;&quot;&gt;8&lt;/span&gt;" style="rounded=1;whiteSpace=wrap;html=1;" vertex="1" parent="1">
          <mxGeometry x="874" y="290" width="60" height="60" as="geometry" />
        </mxCell>
        <mxCell id="HUOILxzLQQR359suwJqP-5" value="&lt;span style=&quot;font-size: 24px;&quot;&gt;9&lt;/span&gt;" style="rounded=1;whiteSpace=wrap;html=1;" vertex="1" parent="1">
          <mxGeometry x="954" y="290" width="60" height="60" as="geometry" />
        </mxCell>
        <mxCell id="HUOILxzLQQR359suwJqP-6" value="&lt;span style=&quot;font-size: 24px;&quot;&gt;+&lt;/span&gt;" style="rounded=1;whiteSpace=wrap;html=1;" vertex="1" parent="1">
          <mxGeometry x="1034" y="290" width="60" height="60" as="geometry" />
        </mxCell>
        <mxCell id="HUOILxzLQQR359suwJqP-7" value="&lt;span style=&quot;font-size: 24px;&quot;&gt;4&lt;/span&gt;" style="rounded=1;whiteSpace=wrap;html=1;" vertex="1" parent="1">
          <mxGeometry x="794" y="370" width="60" height="60" as="geometry" />
        </mxCell>
        <mxCell id="HUOILxzLQQR359suwJqP-8" value="&lt;span style=&quot;font-size: 24px;&quot;&gt;5&lt;/span&gt;" style="rounded=1;whiteSpace=wrap;html=1;" vertex="1" parent="1">
          <mxGeometry x="874" y="370" width="60" height="60" as="geometry" />
        </mxCell>
        <mxCell id="HUOILxzLQQR359suwJqP-9" value="&lt;span style=&quot;font-size: 24px;&quot;&gt;6&lt;/span&gt;" style="rounded=1;whiteSpace=wrap;html=1;" vertex="1" parent="1">
          <mxGeometry x="954" y="370" width="60" height="60" as="geometry" />
        </mxCell>
        <mxCell id="HUOILxzLQQR359suwJqP-10" value="&lt;span style=&quot;font-size: 24px;&quot;&gt;-&lt;/span&gt;" style="rounded=1;whiteSpace=wrap;html=1;" vertex="1" parent="1">
          <mxGeometry x="1034" y="370" width="60" height="60" as="geometry" />
        </mxCell>
        <mxCell id="HUOILxzLQQR359suwJqP-11" value="&lt;span style=&quot;font-size: 24px;&quot;&gt;1&lt;/span&gt;" style="rounded=1;whiteSpace=wrap;html=1;" vertex="1" parent="1">
          <mxGeometry x="794" y="450" width="60" height="60" as="geometry" />
        </mxCell>
        <mxCell id="HUOILxzLQQR359suwJqP-12" value="&lt;span style=&quot;font-size: 24px;&quot;&gt;2&lt;/span&gt;" style="rounded=1;whiteSpace=wrap;html=1;" vertex="1" parent="1">
          <mxGeometry x="874" y="450" width="60" height="60" as="geometry" />
        </mxCell>
        <mxCell id="HUOILxzLQQR359suwJqP-13" value="&lt;span style=&quot;font-size: 24px;&quot;&gt;3&lt;/span&gt;" style="rounded=1;whiteSpace=wrap;html=1;" vertex="1" parent="1">
          <mxGeometry x="954" y="450" width="60" height="60" as="geometry" />
        </mxCell>
        <mxCell id="HUOILxzLQQR359suwJqP-14" value="&lt;span style=&quot;font-size: 24px;&quot;&gt;*&lt;/span&gt;" style="rounded=1;whiteSpace=wrap;html=1;" vertex="1" parent="1">
          <mxGeometry x="1034" y="450" width="60" height="60" as="geometry" />
        </mxCell>
        <mxCell id="HUOILxzLQQR359suwJqP-15" value="&lt;span style=&quot;font-size: 24px;&quot;&gt;0&lt;/span&gt;" style="rounded=1;whiteSpace=wrap;html=1;" vertex="1" parent="1">
          <mxGeometry x="794" y="530" width="60" height="60" as="geometry" />
        </mxCell>
        <mxCell id="HUOILxzLQQR359suwJqP-16" value="&lt;span style=&quot;font-size: 24px;&quot;&gt;(&lt;/span&gt;" style="rounded=1;whiteSpace=wrap;html=1;" vertex="1" parent="1">
          <mxGeometry x="874" y="530" width="60" height="60" as="geometry" />
        </mxCell>
        <mxCell id="HUOILxzLQQR359suwJqP-17" value="&lt;span style=&quot;font-size: 24px;&quot;&gt;)&lt;/span&gt;" style="rounded=1;whiteSpace=wrap;html=1;" vertex="1" parent="1">
          <mxGeometry x="954" y="530" width="60" height="60" as="geometry" />
        </mxCell>
        <mxCell id="HUOILxzLQQR359suwJqP-18" value="&lt;span style=&quot;font-size: 24px;&quot;&gt;/&lt;/span&gt;" style="rounded=1;whiteSpace=wrap;html=1;" vertex="1" parent="1">
          <mxGeometry x="1034" y="530" width="60" height="60" as="geometry" />
        </mxCell>
        <mxCell id="HUOILxzLQQR359suwJqP-19" value="" style="shape=flexArrow;endArrow=classic;html=1;rounded=0;" edge="1" parent="1">
          <mxGeometry width="50" height="50" relative="1" as="geometry">
            <mxPoint x="660" y="400" as="sourcePoint" />
            <mxPoint x="740" y="400" as="targetPoint" />
          </mxGeometry>
        </mxCell>
        <mxCell id="HUOILxzLQQR359suwJqP-20" value="&lt;span style=&quot;font-size: 24px;&quot;&gt;C&lt;/span&gt;" style="rounded=1;whiteSpace=wrap;html=1;" vertex="1" parent="1">
          <mxGeometry x="794" y="615" width="60" height="60" as="geometry" />
        </mxCell>
        <mxCell id="HUOILxzLQQR359suwJqP-21" value="&lt;span style=&quot;font-size: 24px;&quot;&gt;-X&lt;/span&gt;" style="rounded=1;whiteSpace=wrap;html=1;" vertex="1" parent="1">
          <mxGeometry x="874" y="615" width="60" height="60" as="geometry" />
        </mxCell>
        <mxCell id="HUOILxzLQQR359suwJqP-22" value="&lt;span style=&quot;font-size: 24px;&quot;&gt;=&lt;/span&gt;" style="rounded=1;whiteSpace=wrap;html=1;" vertex="1" parent="1">
          <mxGeometry x="958" y="615" width="136" height="60" as="geometry" />
        </mxCell>
        <mxCell id="HUOILxzLQQR359suwJqP-23" value="V1.1 UI Design" style="text;html=1;align=center;verticalAlign=middle;whiteSpace=wrap;rounded=0;" vertex="1" parent="1">
          <mxGeometry x="240" y="675" width="110" height="25" as="geometry" />
        </mxCell>
        <mxCell id="HUOILxzLQQR359suwJqP-24" value="V2.1 UI Design" style="text;html=1;align=center;verticalAlign=middle;whiteSpace=wrap;rounded=0;" vertex="1" parent="1">
          <mxGeometry x="770" y="740" width="120" height="25" as="geometry" />
        </mxCell>
      </root>
    </mxGraphModel>
  </diagram>
</mxfile>
